{"title":"Puberty Blues Complete Season 1 (2012) 1080P WEB-DL AAC2 0 H 26","magnet":"magnet:?xt=urn:btih:612712a74fb5eb027b0858a9bc8f991eb2073cfc&dn=+Puberty+Blues+Complete+Season+1+%282012%29+1080P+WEB-DL+AAC2+0+H+26&tr=udp%3A%2F%2Ftracker.leechers-paradise.org%3A6969&tr=udp%3A%2F%2Fzer0day.ch%3A1337&tr=udp%3A%2F%2Fopen.demonii.com%3A1337&tr=udp%3A%2F%2Ftracker.coppersurfer.tk%3A6969&tr=udp%3A%2F%2Fexodus.desync.com%3A6969","uploader":"jmanwf","categoryP":"video","categoryS":"hd___tv_shows","size":"14307287097","seeders":"0","leechers":"0","description":"Description\r\n\r\nDescription\r\nPuberty Blues tells the story of two girls Debbie and Sue, of innocence lost and experience gained against the backdrop of Australia in the seventies. Based on the iconic novel Puberty Blues by Kathy Lette and Gabrielle Carey, the series will move beyond the original pages and explore the (mis) adventures of these young girls, their families and friends in a tumultuous if not romantic era of Australia&#x2019;s history.\r\n\r\n\r\n\r\nVideo\r\nID                                       : 2\r\nFormat                                   : AVC\r\nFormat/Info                              : Advanced Video Codec\r\nFormat profile                           : <a class=\"__cf_email__\" href=\"/cdn-cgi/l/email-protection\" data-cfemail=\"327a5b555a727e06\">[email&#xA0;protected]</a><script data-cfhash=\"f9e31\" type=\"text/javascript\">/* <![CDATA[ */!function(t,e,r,n,c,a,p){try{t=document.currentScript||function(){for(t=document.getElementsByTagName('script'),e=t.length;e--;)if(t[e].getAttribute('data-cfhash'))return t[e]}();if(t&&(c=t.previousSibling)){p=t.parentNode;if(a=c.getAttribute('data-cfemail')){for(e='',r='0x'+a.substr(0,2)|0,n=2;a.length-n;n+=2)e+='%'+('0'+('0x'+a.substr(n,2)^r).toString(16)).slice(-2);p.replaceChild(document.createTextNode(decodeURIComponent(e)),c)}p.removeChild(t)}}catch(u){}}()/* ]]> */</script>\r\nFormat settings, CABAC                   : Yes\r\nFormat settings, ReFrames                : 4 frames\r\nCodec ID                                 : avc1\r\nCodec ID/Info                            : Advanced Video Coding\r\nDuration                                 : 42 min 51 s\r\nBit rate                                 : 5 170 kb/s\r\nWidth                                    : 1 920 pixels\r\nHeight                                   : 1 080 pixels\r\nDisplay aspect ratio                     : 16:9\r\nFrame rate mode                          : Constant\r\nFrame rate                               : 25.000 FPS\r\nColor space                              : YUV\r\nChroma subsampling                       : 4:2:0\r\nBit depth                                : 8 bits\r\nScan type                                : Progressive\r\nBits/(Pixel*Frame)                       : 0.100\r\nStream size                              : 1.55 GiB (98%)\r\nLanguage                                 : English\r\nEncoded date                             : UTC 2017-05-31 06:09:21\r\nTagged date                              : UTC 2017-05-31 06:11:34\r\nColor range                              : Limited\r\nColor primaries                          : BT.709\r\nTransfer characteristics                 : BT.709\r\nMatrix coefficients                      : BT.709\r\n\r\nAudio\r\nID                                       : 1\r\nFormat                                   : AAC\r\nFormat/Info                              : Advanced Audio Codec\r\nFormat profile                           : LC\r\nCodec ID                                 : 40\r\nDuration                                 : 42 min 51 s\r\nBit rate mode                            : Variable\r\nBit rate                                 : 107 kb/s\r\nMaximum bit rate                         : 123 kb/s\r\nChannel(s)                               : 2 channels\r\nChannel positions                        : Front: L R\r\nSampling rate                            : 48.0 kHz\r\nFrame rate                               : 46.875 FPS (1024 spf)\r\nCompression mode                         : Lossy\r\nStream size                              : 32.9 MiB (2%)\r\nLanguage                                 : English\r\nDefault                                  : Yes\r\nAlternate group                          : 1\r\nEncoded date                             : UTC 2017-05-31 06:09:20\r\nTagged date                              : UTC 2017-05-31 06:11:34\r\n\r\n <a href=\"\nhttps://itunes.apple.com/au/tv-season/puberty-blues-season-1/id548189946\" rel=\"nofollow\" target=\"_NEW\">\nhttps://itunes.apple.com/au/tv-season/puberty-blues-season-1/id548189946</a>","last_updated":"2017-05-31T11:02:59.970Z","parsed":{"xt":"urn:btih:612712a74fb5eb027b0858a9bc8f991eb2073cfc","dn":" Puberty Blues Complete Season 1 (2012) 1080P WEB-DL AAC2 0 H 26","tr":["udp://exodus.desync.com:6969","udp://open.demonii.com:1337","udp://tracker.coppersurfer.tk:6969","udp://tracker.leechers-paradise.org:6969","udp://zer0day.ch:1337"],"infoHash":"612712a74fb5eb027b0858a9bc8f991eb2073cfc","infoHashBuffer":{"type":"Buffer","data":[97,39,18,167,79,181,235,2,123,8,88,169,188,143,153,30,178,7,60,252]},"name":" Puberty Blues Complete Season 1 (2012) 1080P WEB-DL AAC2 0 H 26","announce":["udp://exodus.desync.com:6969","udp://open.demonii.com:1337","udp://tracker.coppersurfer.tk:6969","udp://tracker.leechers-paradise.org:6969","udp://zer0day.ch:1337"],"urlList":[]}}